<svg width="232" height="64" viewBox="0 0 232 64" xmlns="http://www.w3.org/2000/svg" role="img" aria-label="Cuadra">
  <defs>
    <mask id="cuadraMono">
      <g transform="translate(2,9) scale(0.72)">
        <rect x="6" y="6" width="52" height="52" rx="13" fill="#fff"></rect>
        <path d="M14 36 v-3.2 a2.4 2.4 0 0 1 1.7 -2.3 l2.2 -0.6 l3.4 -4.6 a4 4 0 0 1 3.2 -1.6 h10.1 a4 4 0 0 1 3 1.35 l3.6 4.1 l3 0.9 a2.4 2.4 0 0 1 1.7 2.3 V36 a2 2 0 0 1 -2 2 H16 a2 2 0 0 1 -2 -2 Z" fill="#000"></path>
        <rect x="16" y="43" width="32" height="3.4" rx="1.7" fill="#000"></rect>
        <path d="M25 24.8 h8.6 a2 2 0 0 1 1.5 0.7 l2.4 2.8 h-15 l1.5 -2.8 a2 2 0 0 1 1 -0.7 Z" fill="#fff"></path>
        <circle cx="24" cy="38" r="3.6" fill="#000"></circle><circle cx="40" cy="38" r="3.6" fill="#000"></circle>
        <circle cx="24" cy="38" r="1.5" fill="#fff"></circle><circle cx="40" cy="38" r="1.5" fill="#fff"></circle>
      </g>
    </mask>
  </defs>
  <rect x="0" y="0" width="64" height="64" fill="currentColor" mask="url(#cuadraMono)"></rect>
  <text x="62" y="42" font-family="&#39;DM Sans&#39;, sans-serif" font-size="33" font-weight="700" letter-spacing="-0.6" fill="currentColor">Cuadra</text>
</svg>