<svg width="100" height="100" viewBox="0 0 100 100" xmlns="http://www.w3.org/2000/svg" role="img" aria-label="Código QR (placeholder)"><rect width="100" height="100" fill="#fff"></rect><rect x="38.095238095238095" y="0" width="4.761904761904762" height="4.761904761904762" fill="#1F2937"></rect><rect x="52.38095238095238" y="0" width="4.761904761904762" height="4.761904761904762" fill="#1F2937"></rect><rect x="57.14285714285714" y="0" width="4.761904761904762" height="4.761904761904762" fill="#1F2937"></rect><rect x="42.857142857142854" y="4.761904761904762" width="4.761904761904762" height="4.761904761904762" fill="#1F2937"></rect><rect x="47.61904761904762" y="4.761904761904762" width="4.761904761904762" height="4.761904761904762" fill="#1F2937"></rect><rect x="57.14285714285714" y="4.761904761904762" width="4.761904761904762" height="4.761904761904762" fill="#1F2937"></rect><rect x="47.61904761904762" y="9.523809523809524" width="4.761904761904762" height="4.761904761904762" fill="#1F2937"></rect><rect x="47.61904761904762" y="14.285714285714285" width="4.761904761904762" height="4.761904761904762" fill="#1F2937"></rect><rect x="52.38095238095238" y="14.285714285714285" width="4.761904761904762" height="4.761904761904762" fill="#1F2937"></rect><rect x="57.14285714285714" y="14.285714285714285" width="4.761904761904762" height="4.761904761904762" fill="#1F2937"></rect><rect x="38.095238095238095" y="19.047619047619047" width="4.761904761904762" height="4.761904761904762" fill="#1F2937"></rect><rect x="47.61904761904762" y="19.047619047619047" width="4.761904761904762" height="4.761904761904762" fill="#1F2937"></rect><rect x="38.095238095238095" y="23.80952380952381" width="4.761904761904762" height="4.761904761904762" fill="#1F2937"></rect><rect x="47.61904761904762" y="23.80952380952381" width="4.761904761904762" height="4.761904761904762" fill="#1F2937"></rect><rect x="38.095238095238095" y="28.57142857142857" width="4.761904761904762" height="4.761904761904762" fill="#1F2937"></rect><rect x="42.857142857142854" y="28.57142857142857" width="4.761904761904762" height="4.761904761904762" fill="#1F2937"></rect><rect x="47.61904761904762" y="28.57142857142857" width="4.761904761904762" height="4.761904761904762" fill="#1F2937"></rect><rect x="52.38095238095238" y="28.57142857142857" width="4.761904761904762" height="4.761904761904762" fill="#1F2937"></rect><rect x="57.14285714285714" y="28.57142857142857" width="4.761904761904762" height="4.761904761904762" fill="#1F2937"></rect><rect x="38.095238095238095" y="33.333333333333336" width="4.761904761904762" height="4.761904761904762" fill="#1F2937"></rect><rect x="57.14285714285714" y="33.333333333333336" width="4.761904761904762" height="4.761904761904762" fill="#1F2937"></rect><rect x="9.523809523809524" y="38.095238095238095" width="4.761904761904762" height="4.761904761904762" fill="#1F2937"></rect><rect x="19.047619047619047" y="38.095238095238095" width="4.761904761904762" height="4.761904761904762" fill="#1F2937"></rect><rect x="23.80952380952381" y="38.095238095238095" width="4.761904761904762" height="4.761904761904762" fill="#1F2937"></rect><rect x="38.095238095238095" y="38.095238095238095" width="4.761904761904762" height="4.761904761904762" fill="#1F2937"></rect><rect x="52.38095238095238" y="38.095238095238095" width="4.761904761904762" height="4.761904761904762" fill="#1F2937"></rect><rect x="57.14285714285714" y="38.095238095238095" width="4.761904761904762" height="4.761904761904762" fill="#1F2937"></rect><rect x="66.66666666666667" y="38.095238095238095" width="4.761904761904762" height="4.761904761904762" fill="#1F2937"></rect><rect x="71.42857142857143" y="38.095238095238095" width="4.761904761904762" height="4.761904761904762" fill="#1F2937"></rect><rect x="80.95238095238095" y="38.095238095238095" width="4.761904761904762" height="4.761904761904762" fill="#1F2937"></rect><rect x="95.23809523809524" y="38.095238095238095" width="4.761904761904762" height="4.761904761904762" fill="#1F2937"></rect><rect x="23.80952380952381" y="42.857142857142854" width="4.761904761904762" height="4.761904761904762" fill="#1F2937"></rect><rect x="38.095238095238095" y="42.857142857142854" width="4.761904761904762" height="4.761904761904762" fill="#1F2937"></rect><rect x="42.857142857142854" y="42.857142857142854" width="4.761904761904762" height="4.761904761904762" fill="#1F2937"></rect><rect x="47.61904761904762" y="42.857142857142854" width="4.761904761904762" height="4.761904761904762" fill="#1F2937"></rect><rect x="52.38095238095238" y="42.857142857142854" width="4.761904761904762" height="4.761904761904762" fill="#1F2937"></rect><rect x="71.42857142857143" y="42.857142857142854" width="4.761904761904762" height="4.761904761904762" fill="#1F2937"></rect><rect x="76.19047619047619" y="42.857142857142854" width="4.761904761904762" height="4.761904761904762" fill="#1F2937"></rect><rect x="90.47619047619048" y="42.857142857142854" width="4.761904761904762" height="4.761904761904762" fill="#1F2937"></rect><rect x="4.761904761904762" y="47.61904761904762" width="4.761904761904762" height="4.761904761904762" fill="#1F2937"></rect><rect x="9.523809523809524" y="47.61904761904762" width="4.761904761904762" height="4.761904761904762" fill="#1F2937"></rect><rect x="38.095238095238095" y="47.61904761904762" width="4.761904761904762" height="4.761904761904762" fill="#1F2937"></rect><rect x="47.61904761904762" y="47.61904761904762" width="4.761904761904762" height="4.761904761904762" fill="#1F2937"></rect><rect x="57.14285714285714" y="47.61904761904762" width="4.761904761904762" height="4.761904761904762" fill="#1F2937"></rect><rect x="61.904761904761905" y="47.61904761904762" width="4.761904761904762" height="4.761904761904762" fill="#1F2937"></rect><rect x="76.19047619047619" y="47.61904761904762" width="4.761904761904762" height="4.761904761904762" fill="#1F2937"></rect><rect x="95.23809523809524" y="47.61904761904762" width="4.761904761904762" height="4.761904761904762" fill="#1F2937"></rect><rect x="19.047619047619047" y="52.38095238095238" width="4.761904761904762" height="4.761904761904762" fill="#1F2937"></rect><rect x="28.57142857142857" y="52.38095238095238" width="4.761904761904762" height="4.761904761904762" fill="#1F2937"></rect><rect x="33.333333333333336" y="52.38095238095238" width="4.761904761904762" height="4.761904761904762" fill="#1F2937"></rect><rect x="38.095238095238095" y="52.38095238095238" width="4.761904761904762" height="4.761904761904762" fill="#1F2937"></rect><rect x="42.857142857142854" y="52.38095238095238" width="4.761904761904762" height="4.761904761904762" fill="#1F2937"></rect><rect x="47.61904761904762" y="52.38095238095238" width="4.761904761904762" height="4.761904761904762" fill="#1F2937"></rect><rect x="71.42857142857143" y="52.38095238095238" width="4.761904761904762" height="4.761904761904762" fill="#1F2937"></rect><rect x="80.95238095238095" y="52.38095238095238" width="4.761904761904762" height="4.761904761904762" fill="#1F2937"></rect><rect x="85.71428571428571" y="52.38095238095238" width="4.761904761904762" height="4.761904761904762" fill="#1F2937"></rect><rect x="95.23809523809524" y="52.38095238095238" width="4.761904761904762" height="4.761904761904762" fill="#1F2937"></rect><rect x="4.761904761904762" y="57.14285714285714" width="4.761904761904762" height="4.761904761904762" fill="#1F2937"></rect><rect x="9.523809523809524" y="57.14285714285714" width="4.761904761904762" height="4.761904761904762" fill="#1F2937"></rect><rect x="23.80952380952381" y="57.14285714285714" width="4.761904761904762" height="4.761904761904762" fill="#1F2937"></rect><rect x="28.57142857142857" y="57.14285714285714" width="4.761904761904762" height="4.761904761904762" fill="#1F2937"></rect><rect x="33.333333333333336" y="57.14285714285714" width="4.761904761904762" height="4.761904761904762" fill="#1F2937"></rect><rect x="61.904761904761905" y="57.14285714285714" width="4.761904761904762" height="4.761904761904762" fill="#1F2937"></rect><rect x="66.66666666666667" y="57.14285714285714" width="4.761904761904762" height="4.761904761904762" fill="#1F2937"></rect><rect x="76.19047619047619" y="57.14285714285714" width="4.761904761904762" height="4.761904761904762" fill="#1F2937"></rect><rect x="90.47619047619048" y="57.14285714285714" width="4.761904761904762" height="4.761904761904762" fill="#1F2937"></rect><rect x="95.23809523809524" y="57.14285714285714" width="4.761904761904762" height="4.761904761904762" fill="#1F2937"></rect><rect x="38.095238095238095" y="61.904761904761905" width="4.761904761904762" height="4.761904761904762" fill="#1F2937"></rect><rect x="42.857142857142854" y="61.904761904761905" width="4.761904761904762" height="4.761904761904762" fill="#1F2937"></rect><rect x="52.38095238095238" y="61.904761904761905" width="4.761904761904762" height="4.761904761904762" fill="#1F2937"></rect><rect x="61.904761904761905" y="61.904761904761905" width="4.761904761904762" height="4.761904761904762" fill="#1F2937"></rect><rect x="76.19047619047619" y="61.904761904761905" width="4.761904761904762" height="4.761904761904762" fill="#1F2937"></rect><rect x="85.71428571428571" y="61.904761904761905" width="4.761904761904762" height="4.761904761904762" fill="#1F2937"></rect><rect x="38.095238095238095" y="66.66666666666667" width="4.761904761904762" height="4.761904761904762" fill="#1F2937"></rect><rect x="47.61904761904762" y="66.66666666666667" width="4.761904761904762" height="4.761904761904762" fill="#1F2937"></rect><rect x="52.38095238095238" y="66.66666666666667" width="4.761904761904762" height="4.761904761904762" fill="#1F2937"></rect><rect x="61.904761904761905" y="66.66666666666667" width="4.761904761904762" height="4.761904761904762" fill="#1F2937"></rect><rect x="71.42857142857143" y="66.66666666666667" width="4.761904761904762" height="4.761904761904762" fill="#1F2937"></rect><rect x="76.19047619047619" y="66.66666666666667" width="4.761904761904762" height="4.761904761904762" fill="#1F2937"></rect><rect x="85.71428571428571" y="66.66666666666667" width="4.761904761904762" height="4.761904761904762" fill="#1F2937"></rect><rect x="90.47619047619048" y="66.66666666666667" width="4.761904761904762" height="4.761904761904762" fill="#1F2937"></rect><rect x="95.23809523809524" y="66.66666666666667" width="4.761904761904762" height="4.761904761904762" fill="#1F2937"></rect><rect x="42.857142857142854" y="71.42857142857143" width="4.761904761904762" height="4.761904761904762" fill="#1F2937"></rect><rect x="57.14285714285714" y="71.42857142857143" width="4.761904761904762" height="4.761904761904762" fill="#1F2937"></rect><rect x="61.904761904761905" y="71.42857142857143" width="4.761904761904762" height="4.761904761904762" fill="#1F2937"></rect><rect x="71.42857142857143" y="71.42857142857143" width="4.761904761904762" height="4.761904761904762" fill="#1F2937"></rect><rect x="95.23809523809524" y="71.42857142857143" width="4.761904761904762" height="4.761904761904762" fill="#1F2937"></rect><rect x="38.095238095238095" y="76.19047619047619" width="4.761904761904762" height="4.761904761904762" fill="#1F2937"></rect><rect x="42.857142857142854" y="76.19047619047619" width="4.761904761904762" height="4.761904761904762" fill="#1F2937"></rect><rect x="57.14285714285714" y="76.19047619047619" width="4.761904761904762" height="4.761904761904762" fill="#1F2937"></rect><rect x="80.95238095238095" y="76.19047619047619" width="4.761904761904762" height="4.761904761904762" fill="#1F2937"></rect><rect x="85.71428571428571" y="76.19047619047619" width="4.761904761904762" height="4.761904761904762" fill="#1F2937"></rect><rect x="95.23809523809524" y="76.19047619047619" width="4.761904761904762" height="4.761904761904762" fill="#1F2937"></rect><rect x="42.857142857142854" y="80.95238095238095" width="4.761904761904762" height="4.761904761904762" fill="#1F2937"></rect><rect x="52.38095238095238" y="80.95238095238095" width="4.761904761904762" height="4.761904761904762" fill="#1F2937"></rect><rect x="71.42857142857143" y="80.95238095238095" width="4.761904761904762" height="4.761904761904762" fill="#1F2937"></rect><rect x="80.95238095238095" y="80.95238095238095" width="4.761904761904762" height="4.761904761904762" fill="#1F2937"></rect><rect x="52.38095238095238" y="85.71428571428571" width="4.761904761904762" height="4.761904761904762" fill="#1F2937"></rect><rect x="85.71428571428571" y="85.71428571428571" width="4.761904761904762" height="4.761904761904762" fill="#1F2937"></rect><rect x="90.47619047619048" y="85.71428571428571" width="4.761904761904762" height="4.761904761904762" fill="#1F2937"></rect><rect x="95.23809523809524" y="85.71428571428571" width="4.761904761904762" height="4.761904761904762" fill="#1F2937"></rect><rect x="47.61904761904762" y="90.47619047619048" width="4.761904761904762" height="4.761904761904762" fill="#1F2937"></rect><rect x="52.38095238095238" y="90.47619047619048" width="4.761904761904762" height="4.761904761904762" fill="#1F2937"></rect><rect x="66.66666666666667" y="90.47619047619048" width="4.761904761904762" height="4.761904761904762" fill="#1F2937"></rect><rect x="71.42857142857143" y="90.47619047619048" width="4.761904761904762" height="4.761904761904762" fill="#1F2937"></rect><rect x="38.095238095238095" y="95.23809523809524" width="4.761904761904762" height="4.761904761904762" fill="#1F2937"></rect><rect x="42.857142857142854" y="95.23809523809524" width="4.761904761904762" height="4.761904761904762" fill="#1F2937"></rect><rect x="47.61904761904762" y="95.23809523809524" width="4.761904761904762" height="4.761904761904762" fill="#1F2937"></rect><rect x="57.14285714285714" y="95.23809523809524" width="4.761904761904762" height="4.761904761904762" fill="#1F2937"></rect><rect x="71.42857142857143" y="95.23809523809524" width="4.761904761904762" height="4.761904761904762" fill="#1F2937"></rect><rect x="85.71428571428571" y="95.23809523809524" width="4.761904761904762" height="4.761904761904762" fill="#1F2937"></rect><rect x="90.47619047619048" y="95.23809523809524" width="4.761904761904762" height="4.761904761904762" fill="#1F2937"></rect><rect x="95.23809523809524" y="95.23809523809524" width="4.761904761904762" height="4.761904761904762" fill="#1F2937"></rect><rect x="0" y="0" width="33.333333333333336" height="33.333333333333336" fill="#1F2937"></rect><rect x="4.761904761904762" y="4.761904761904762" width="23.80952380952381" height="23.80952380952381" fill="#fff"></rect><rect x="9.523809523809524" y="9.523809523809524" width="14.285714285714285" height="14.285714285714285" fill="#1F2937"></rect><rect x="66.66666666666667" y="0" width="33.333333333333336" height="33.333333333333336" fill="#1F2937"></rect><rect x="71.42857142857143" y="4.761904761904762" width="23.80952380952381" height="23.80952380952381" fill="#fff"></rect><rect x="76.19047619047619" y="9.523809523809524" width="14.285714285714285" height="14.285714285714285" fill="#1F2937"></rect><rect x="0" y="66.66666666666667" width="33.333333333333336" height="33.333333333333336" fill="#1F2937"></rect><rect x="4.761904761904762" y="71.42857142857143" width="23.80952380952381" height="23.80952380952381" fill="#fff"></rect><rect x="9.523809523809524" y="76.19047619047619" width="14.285714285714285" height="14.285714285714285" fill="#1F2937"></rect></svg>